<?xml version="1.0" standalone="no"?>
<!DOCTYPE svg PUBLIC "-//W3C//DTD SVG 20010904//EN"
 "http://www.w3.org/TR/2001/REC-SVG-20010904/DTD/svg10.dtd">
<svg version="1.0" xmlns="http://www.w3.org/2000/svg"
 width="107.000000pt" height="135.000000pt" viewBox="0 0 107.000000 135.000000"
 preserveAspectRatio="xMidYMid meet">
<metadata>
Created by potrace 1.16, written by Peter Selinger 2001-2019
</metadata>
<g transform="translate(0.000000,135.000000) scale(0.100000,-0.100000)"
fill="#000000" stroke="none">
<path d="M485 1208 c-42 -33 -55 -76 -55 -183 0 -92 -1 -96 -20 -90 -29 9 -61
-30 -114 -138 -58 -117 -73 -180 -51 -213 20 -31 53 -31 129 1 33 13 61 23 63
22 1 -2 -3 -20 -9 -41 -10 -31 -15 -36 -32 -32 -83 23 -174 9 -230 -35 -64
-50 -54 -122 22 -167 41 -23 58 -27 127 -27 68 0 89 4 138 28 31 16 57 35 57
43 0 19 -7 18 -38 -5 -36 -25 -115 -51 -156 -51 -45 0 -115 26 -143 52 -25 23
-29 57 -12 90 16 29 86 58 146 58 72 0 119 -20 249 -107 61 -41 134 -83 163
-93 92 -35 187 -22 249 34 108 99 -46 222 -229 183 -34 -7 -37 -6 -43 20 -4
16 -9 35 -12 44 -4 13 5 12 45 -8 27 -14 67 -27 89 -30 35 -5 42 -2 57 21 23
34 10 87 -50 211 -46 97 -88 150 -109 142 -19 -7 -25 29 -19 107 10 121 -36
186 -131 186 -40 0 -60 -6 -81 -22z m150 -22 c23 -24 46 -84 44 -121 0 -11 -3
-14 -6 -7 -2 6 -11 12 -19 12 -8 0 -41 13 -74 30 -32 16 -66 27 -75 24 -9 -4
-24 -23 -35 -43 -18 -33 -19 -34 -20 -11 0 46 20 99 47 120 37 29 106 27 138
-4z m-50 -108 c36 -18 65 -35 65 -38 -1 -3 -13 -23 -28 -45 -32 -46 -64 -55
-94 -28 -45 41 -56 93 -26 131 13 16 8 17 83 -20z m-95 -93 c50 -72 106 -70
153 4 l22 36 7 -60 c5 -37 4 -72 -2 -90 -6 -16 -14 -65 -17 -108 -5 -71 -7
-75 -20 -57 -12 17 -12 24 -3 35 10 12 9 15 -8 15 -21 0 -32 25 -44 95 -2 11
-10 20 -18 20 -8 0 -16 -9 -18 -20 -12 -68 -24 -95 -42 -95 -22 0 -27 -16 -8
-22 8 -3 7 -11 -5 -28 -17 -24 -17 -24 -17 25 0 28 -7 76 -14 108 -10 43 -11
69 -4 95 5 19 8 48 6 64 -3 15 -3 28 -2 28 2 0 17 -20 34 -45z m-63 -115 c7
-14 15 -67 19 -117 l7 -92 -48 -30 c-93 -59 -153 -51 -140 18 9 47 41 121 83
194 37 63 58 70 79 27z m351 -37 c22 -38 50 -96 62 -130 40 -112 8 -140 -97
-88 -78 39 -79 41 -66 156 17 151 41 166 101 62z m-163 -141 c16 -26 37 -76
46 -112 17 -65 17 -65 -4 -82 -12 -10 -25 -18 -29 -18 -5 0 -8 -6 -8 -14 0
-11 18 -5 66 20 53 28 77 34 125 34 180 0 235 -137 74 -186 -63 -18 -85 -18
-149 5 -50 17 -81 36 -221 130 -32 23 -62 42 -66 43 -15 6 22 127 53 176 44
69 72 70 113 4z"/>
</g>
</svg>
